<?xml version="1.0" encoding="UTF-8"?>
<svg xmlns="http://www.w3.org/2000/svg" xmlns:xlink="http://www.w3.org/1999/xlink" version="1.1" id="Capa_1" x="0px" y="0px" viewBox="0 0 512 512" style="enable-background:new 0 0 512 512;" xml:space="preserve" width="512" height="512">
<g>
	<g>
		<path style="fill:none;stroke:#000000;stroke-width:15;stroke-linecap:round;stroke-linejoin:round;stroke-miterlimit:10;" d="&#10;&#9;&#9;&#9;M49.181,84.719l17.714-35.427C69.436,44.21,74.63,41,80.311,41h74.939c8.284,0,15,6.716,15,15v30c0,8.284-6.716,15-15,15H59.244&#10;&#9;&#9;&#9;C50.88,101,45.441,92.199,49.181,84.719z"/>
		<path style="fill:none;stroke:#000000;stroke-width:15;stroke-linecap:round;stroke-linejoin:round;stroke-miterlimit:10;" d="&#10;&#9;&#9;&#9;M283.355,79.292l-15-30C265.814,44.21,260.62,41,254.938,41H215.25c-8.284,0-15,6.716-15,15v30c0,8.284,6.716,15,15,15h54.688&#10;&#9;&#9;&#9;C281.089,101,288.342,89.265,283.355,79.292z"/>
		<path style="fill:none;stroke:#000000;stroke-width:15;stroke-linecap:round;stroke-linejoin:round;stroke-miterlimit:10;" d="&#10;&#9;&#9;&#9;M298.729,42.959l-7.688-15.375C285.96,17.42,275.572,11,264.209,11H71.041c-11.363,0-21.751,6.42-26.833,16.583L13.834,88.331&#10;&#9;&#9;&#9;C9.669,96.663,7.5,105.849,7.5,115.164V161v22.5C7.5,195.926,17.574,206,30,206"/>
		<path style="fill:none;stroke:#000000;stroke-width:15;stroke-linecap:round;stroke-linejoin:round;stroke-miterlimit:10;" d="&#10;&#9;&#9;&#9;M380.25,156.444v-13.162c0-12.001-7.152-22.847-18.182-27.574l-24.217-10.379c-6.522-2.795-11.842-7.811-15.015-14.158&#10;&#9;&#9;&#9;L312.01,69.52"/>
		
			<line style="fill:none;stroke:#000000;stroke-width:15;stroke-linecap:round;stroke-linejoin:round;stroke-miterlimit:10;" x1="135" y1="206" x2="164.984" y2="206"/>
		
			<line style="fill:none;stroke:#000000;stroke-width:15;stroke-linecap:round;stroke-linejoin:round;stroke-miterlimit:10;" x1="8.435" y1="161" x2="44.654" y2="161"/>
		
			<line style="fill:none;stroke:#000000;stroke-width:15;stroke-linecap:round;stroke-linejoin:round;stroke-miterlimit:10;" x1="120.507" y1="161" x2="210.782" y2="161"/>
		
			<circle style="fill:none;stroke:#000000;stroke-width:15;stroke-linecap:round;stroke-linejoin:round;stroke-miterlimit:10;" cx="82.5" cy="198.5" r="52.5"/>
		
			<circle style="fill:none;stroke:#000000;stroke-width:15;stroke-linecap:round;stroke-linejoin:round;stroke-miterlimit:10;" cx="82.5" cy="198.5" r="22.5"/>
		<path style="fill:none;stroke:#000000;stroke-width:15;stroke-linecap:round;stroke-linejoin:round;stroke-miterlimit:10;" d="&#10;&#9;&#9;&#9;M461.588,408.591l32.66,32.66c13.668,13.668,13.668,35.829,0,49.497l0,0c-13.668,13.668-35.829,13.668-49.497,0l-32.885-32.885"/>
		<path style="fill:none;stroke:#000000;stroke-width:15;stroke-linecap:round;stroke-linejoin:round;stroke-miterlimit:10;" d="&#10;&#9;&#9;&#9;M446.169,361.717c3.957,1.454,7.67,3.769,10.847,6.947l0,0c11.716,11.716,11.716,30.711,0,42.426l-42.426,42.426&#10;&#9;&#9;&#9;c-11.716,11.716-30.711,11.716-42.426,0l0,0c-3.194-3.194-5.518-6.93-6.97-10.912"/>
		
			<circle style="fill:none;stroke:#000000;stroke-width:15;stroke-linecap:round;stroke-linejoin:round;stroke-miterlimit:10;" cx="298.729" cy="295.229" r="160"/>
		<path style="fill:none;stroke:#000000;stroke-width:15;stroke-linecap:round;stroke-linejoin:round;stroke-miterlimit:10;" d="&#10;&#9;&#9;&#9;M212.631,363.703c-34.366-43.145-31.594-106.345,8.316-146.255c42.889-42.889,112.674-42.889,155.564,0s42.889,112.674,0,155.563&#10;&#9;&#9;&#9;c-38.671,38.671-99.208,42.474-142.18,11.41"/>
		
			<line style="fill:none;stroke:#000000;stroke-width:15;stroke-linecap:round;stroke-linejoin:round;stroke-miterlimit:10;" x1="155.25" y1="126" x2="135.25" y2="126"/>
		<g>
			
				<line style="fill:none;stroke:#000000;stroke-width:15;stroke-linecap:round;stroke-linejoin:round;stroke-miterlimit:10;" x1="236.281" y1="285.658" x2="236.281" y2="297.658"/>
			
				<line style="fill:none;stroke:#000000;stroke-width:15;stroke-linecap:round;stroke-linejoin:round;stroke-miterlimit:10;" x1="361.178" y1="285.658" x2="361.178" y2="297.658"/>
			<path style="fill:none;stroke:#000000;stroke-width:15;stroke-linecap:round;stroke-linejoin:round;stroke-miterlimit:10;" d="&#10;&#9;&#9;&#9;&#9;M282.265,297.3c4.003,4.594,9.892,7.501,16.464,7.501c6.572,0,12.461-2.907,16.464-7.501"/>
		</g>
	</g>
</g>

</svg>
