<?xml version="1.0" encoding="UTF-8"?>
<svg xmlns="http://www.w3.org/2000/svg" xmlns:xlink="http://www.w3.org/1999/xlink" version="1.1" id="Capa_1" x="0px" y="0px" viewBox="0 0 512 512" style="enable-background:new 0 0 512 512;" xml:space="preserve" width="512" height="512">
<g>
	<g>
		
			<line style="fill:none;stroke:#000000;stroke-width:15;stroke-linecap:round;stroke-linejoin:round;stroke-miterlimit:10;" x1="227.552" y1="93.074" x2="227.552" y2="105.074"/>
		<path style="fill:none;stroke:#000000;stroke-width:15;stroke-linecap:round;stroke-linejoin:round;stroke-miterlimit:10;" d="&#10;&#9;&#9;&#9;M325.977,115.032c0-14.643-10.608-16.019-23.693-16.019c-13.086,0-23.694,1.376-23.694,16.019&#10;&#9;&#9;&#9;c0,14.643,10.608,26.513,23.694,26.513C315.37,141.545,325.977,129.675,325.977,115.032z"/>
		
			<line style="fill:none;stroke:#000000;stroke-width:15;stroke-linecap:round;stroke-linejoin:round;stroke-miterlimit:10;" x1="377.016" y1="93.074" x2="377.016" y2="105.074"/>
	</g>
	<g>
		<path style="fill:none;stroke:#000000;stroke-width:15;stroke-linecap:round;stroke-linejoin:round;stroke-miterlimit:10;" d="&#10;&#9;&#9;&#9;M66,346v118.5c0,22.091,17.909,40,40,40h320c22.091,0,40-17.909,40-40v-417c0-22.091-17.909-40-40-40H106&#10;&#9;&#9;&#9;c-22.091,0-40,17.909-40,40v119.223"/>
		
			<line style="fill:none;stroke:#000000;stroke-width:15;stroke-linecap:round;stroke-linejoin:round;stroke-miterlimit:10;" x1="66" y1="209.659" x2="66" y2="302.136"/>
		
			<line style="fill:none;stroke:#000000;stroke-width:15;stroke-linecap:round;stroke-linejoin:round;stroke-miterlimit:10;" x1="362.016" y1="47.5" x2="199.333" y2="47.5"/>
		<path style="fill:none;stroke:#000000;stroke-width:15;stroke-linecap:round;stroke-linejoin:round;stroke-miterlimit:10;" d="&#10;&#9;&#9;&#9;M106,411.573v20.594c0,18.409,14.924,33.333,33.333,33.333h253.333c18.41,0,33.333-14.924,33.333-33.333V80.833&#10;&#9;&#9;&#9;c0-18.409-14.924-33.333-33.333-33.333"/>
		
			<line style="fill:none;stroke:#000000;stroke-width:15;stroke-linecap:round;stroke-linejoin:round;stroke-miterlimit:10;" x1="106" y1="346" x2="106" y2="381.573"/>
		
			<line style="fill:none;stroke:#000000;stroke-width:15;stroke-linecap:round;stroke-linejoin:round;stroke-miterlimit:10;" x1="106" y1="209.659" x2="106" y2="302.136"/>
		
			<polyline style="fill:none;stroke:#000000;stroke-width:15;stroke-linecap:round;stroke-linejoin:round;stroke-miterlimit:10;" points="&#10;&#9;&#9;&#9;106,138.117 106,138.117 106,166.062 &#9;&#9;"/>
		<path style="fill:none;stroke:#000000;stroke-width:15;stroke-linecap:round;stroke-linejoin:round;stroke-miterlimit:10;" d="&#10;&#9;&#9;&#9;M106,138.117c8.591-6.497,19.121-10.108,30.067-10.108h11.016c23.85,0,43.185-19.335,43.185-43.185v-10.43&#10;&#9;&#9;&#9;c0-9.792,3.238-19.215,9.066-26.894C149.894,50.17,110.092,89.069,106,138.117z"/>
		<path style="fill:none;stroke:#000000;stroke-width:15;stroke-linecap:round;stroke-linejoin:round;stroke-miterlimit:10;" d="&#10;&#9;&#9;&#9;M46,188.117L46,188.117c0-11.046,8.954-20,20-20h60c11.046,0,20,8.954,20,20v0c0,11.046-8.954,20-20,20H66&#10;&#9;&#9;&#9;C54.954,208.117,46,199.163,46,188.117z"/>
		<path style="fill:none;stroke:#000000;stroke-width:15;stroke-linecap:round;stroke-linejoin:round;stroke-miterlimit:10;" d="&#10;&#9;&#9;&#9;M46,323.883L46,323.883c0,11.046,8.954,20,20,20h60c11.046,0,20-8.954,20-20v0c0-11.046-8.954-20-20-20H66&#10;&#9;&#9;&#9;C54.954,303.883,46,312.837,46,323.883z"/>
		<path style="fill:none;stroke:#000000;stroke-width:15;stroke-linecap:round;stroke-linejoin:round;stroke-miterlimit:10;" d="&#10;&#9;&#9;&#9;M231,236.5h-40c-5.523,0-10-4.477-10-10v-40c0-5.523,4.477-10,10-10h40c5.523,0,10,4.477,10,10v40&#10;&#9;&#9;&#9;C241,232.023,236.523,236.5,231,236.5z"/>
		
			<polyline style="fill:none;stroke:#000000;stroke-width:15;stroke-linecap:round;stroke-linejoin:round;stroke-miterlimit:10;" points="&#10;&#9;&#9;&#9;241.043,186.543 215,212.586 206.25,203.836 &#9;&#9;"/>
		
			<line style="fill:none;stroke:#000000;stroke-width:15;stroke-linecap:round;stroke-linejoin:round;stroke-miterlimit:10;" x1="281" y1="226.5" x2="386" y2="226.5"/>
		
			<line style="fill:none;stroke:#000000;stroke-width:15;stroke-linecap:round;stroke-linejoin:round;stroke-miterlimit:10;" x1="281" y1="186.5" x2="386" y2="186.5"/>
		<path style="fill:none;stroke:#000000;stroke-width:15;stroke-linecap:round;stroke-linejoin:round;stroke-miterlimit:10;" d="&#10;&#9;&#9;&#9;M231,336.5h-40c-5.523,0-10-4.477-10-10v-40c0-5.523,4.477-10,10-10h40c5.523,0,10,4.477,10,10v40&#10;&#9;&#9;&#9;C241,332.023,236.523,336.5,231,336.5z"/>
		
			<polyline style="fill:none;stroke:#000000;stroke-width:15;stroke-linecap:round;stroke-linejoin:round;stroke-miterlimit:10;" points="&#10;&#9;&#9;&#9;241.043,286.543 215,312.586 206.25,303.836 &#9;&#9;"/>
		
			<line style="fill:none;stroke:#000000;stroke-width:15;stroke-linecap:round;stroke-linejoin:round;stroke-miterlimit:10;" x1="176" y1="376.5" x2="386" y2="376.5"/>
		
			<line style="fill:none;stroke:#000000;stroke-width:15;stroke-linecap:round;stroke-linejoin:round;stroke-miterlimit:10;" x1="176" y1="416.5" x2="386" y2="416.5"/>
		
			<line style="fill:none;stroke:#000000;stroke-width:15;stroke-linecap:round;stroke-linejoin:round;stroke-miterlimit:10;" x1="281" y1="326.5" x2="386" y2="326.5"/>
		
			<line style="fill:none;stroke:#000000;stroke-width:15;stroke-linecap:round;stroke-linejoin:round;stroke-miterlimit:10;" x1="281" y1="286.5" x2="386" y2="286.5"/>
	</g>
</g>
</svg>
