<?xml version="1.0" encoding="UTF-8"?>
<svg xmlns="http://www.w3.org/2000/svg" xmlns:xlink="http://www.w3.org/1999/xlink" version="1.1" id="Capa_1" x="0px" y="0px" viewBox="0 0 512 512" style="enable-background:new 0 0 512 512;" xml:space="preserve" width="512" height="512">
<g>
	<g>
		<path style="fill:none;stroke:#000000;stroke-width:15;stroke-linecap:round;stroke-linejoin:round;stroke-miterlimit:10;" d="&#10;&#9;&#9;&#9;M491.911,237.554c2.525,8.542,3.88,17.586,3.88,26.946c0,38.984-23.507,72.477-57.12,87.079"/>
		<path style="fill:none;stroke:#000000;stroke-width:15;stroke-linecap:round;stroke-linejoin:round;stroke-miterlimit:10;" d="&#10;&#9;&#9;&#9;M306,264.5c0-52.409,42.486-94.895,94.895-94.895c10.507,0,20.614,1.707,30.061,4.86"/>
		<path style="fill:none;stroke:#000000;stroke-width:15;stroke-linecap:round;stroke-linejoin:round;stroke-miterlimit:10;" d="&#10;&#9;&#9;&#9;M143.346,166.243L18.341,199.738c-7.8,2.09-12.429,10.107-10.339,17.907l0.88,3.282c0.747,2.788,2.303,5.293,4.471,7.199&#10;&#9;&#9;&#9;l51.589,45.338c3.672,3.227,8.714,4.406,13.436,3.14h0c7.8-2.09,12.429-10.107,10.339-17.907l-2.025-7.559&#10;&#9;&#9;&#9;c-3.209-11.974,3.898-24.283,15.872-27.491l0,0c11.974-3.209,24.283,3.898,27.491,15.872l0,0&#10;&#9;&#9;&#9;c3.209,11.974,15.517,19.081,27.491,15.872l1.86-0.498c5.75-1.541,10.653-5.303,13.63-10.458l6.574-11.387&#10;&#9;&#9;&#9;c6.198-10.736,19.926-14.414,30.662-8.216l11.387,6.575c5.156,2.977,11.282,3.783,17.033,2.242l7.307-1.958"/>
		
			<line style="fill:none;stroke:#000000;stroke-width:15;stroke-linecap:round;stroke-linejoin:round;stroke-miterlimit:10;" x1="222.444" y1="145.049" x2="172.335" y2="158.476"/>
		<path style="fill:none;stroke:#000000;stroke-width:15;stroke-linecap:round;stroke-linejoin:round;stroke-miterlimit:10;" d="&#10;&#9;&#9;&#9;M394.475,280.069c17.415-1.828,34.714-4.983,51.742-9.46l0,0c41.869-11.006,66.805-53.961,55.601-95.778L472.167,64.171&#10;&#9;&#9;&#9;c-10.889-40.638-52.571-64.836-93.261-54.141l0,0c-50.192,13.192-96.765,37.527-136.257,71.195l0,0&#10;&#9;&#9;&#9;c-16.884,14.394-24.032,37.187-18.39,58.645l24.782,93.992c3.251,12.365,10.415,23.021,20.063,30.643"/>
		<path style="fill:none;stroke:#000000;stroke-width:15;stroke-linecap:round;stroke-linejoin:round;stroke-miterlimit:10;" d="&#10;&#9;&#9;&#9;M430.88,170.267c4.813,17.962-5.846,36.424-23.808,41.237l0,0c-17.962,4.813-36.424-5.846-41.237-23.808l-17.429-65.045&#10;&#9;&#9;&#9;c-4.813-17.962,5.846-36.424,23.808-41.237l0,0c17.962-4.813,36.424,5.846,41.237,23.808L430.88,170.267z"/>
		<path style="fill:none;stroke:#000000;stroke-width:15;stroke-linecap:round;stroke-linejoin:round;stroke-miterlimit:10;" d="&#10;&#9;&#9;&#9;M403.187,312.5H420c13.255,0,24,10.745,24,24v0c0,9.306-5.297,17.376-13.04,21.357"/>
		<path style="fill:none;stroke:#000000;stroke-width:15;stroke-linecap:round;stroke-linejoin:round;stroke-miterlimit:10;" d="&#10;&#9;&#9;&#9;M208.545,312.5H192c-13.255,0-24,10.745-24,24v0c0,9.247,5.229,17.272,12.892,21.28"/>
		<path style="fill:none;stroke:#000000;stroke-width:15;stroke-linecap:round;stroke-linejoin:round;stroke-miterlimit:10;" d="&#10;&#9;&#9;&#9;M444,392.744v-5.332c0-9.548-3.793-18.705-10.544-25.456l-18.405-18.405c-4.614-4.614-7.887-10.395-9.469-16.725l-8.764-35.058&#10;&#9;&#9;&#9;c-4.007-16.026-18.406-27.269-34.925-27.269H250.108c-16.519,0-30.919,11.243-34.925,27.269l-8.764,35.058&#10;&#9;&#9;&#9;c-1.582,6.33-4.856,12.111-9.469,16.725l-18.405,18.405C171.793,368.707,168,377.864,168,387.412v5.332"/>
		<path style="fill:none;stroke:#000000;stroke-width:15;stroke-linecap:round;stroke-linejoin:round;stroke-miterlimit:10;" d="&#10;&#9;&#9;&#9;M319.408,336.5h-56.026c-12.361,0-21.431-11.616-18.433-23.608l0,0c2.115-8.458,9.714-14.392,18.433-14.392h85.238&#10;&#9;&#9;&#9;c8.718,0,16.318,5.934,18.433,14.392v0c2.998,11.992-6.072,23.608-18.433,23.608"/>
		<path style="fill:none;stroke:#000000;stroke-width:15;stroke-linecap:round;stroke-linejoin:round;stroke-miterlimit:10;" d="&#10;&#9;&#9;&#9;M437.1,453.845V474.5c0,16.569-13.431,30-30,30h0c-16.569,0-30-13.431-30-30v-16.362"/>
		<path style="fill:none;stroke:#000000;stroke-width:15;stroke-linecap:round;stroke-linejoin:round;stroke-miterlimit:10;" d="&#10;&#9;&#9;&#9;M174.9,453.845V474.5c0,16.569,13.431,30,30,30h0c16.569,0,30-13.431,30-30v-16.692"/>
		<path style="fill:none;stroke:#000000;stroke-width:15;stroke-linecap:round;stroke-linejoin:round;stroke-miterlimit:10;" d="&#10;&#9;&#9;&#9;M367.629,408.5h3.172c7.616,0,14.903-3.448,19.465-9.546c6.851-9.158,17.959-14.945,30.393-14.421&#10;&#9;&#9;&#9;c18.495,0.78,33.54,15.753,34.402,34.244c0.964,20.666-15.506,37.724-35.96,37.724H192.9c-20.454,0-36.923-17.058-35.96-37.724&#10;&#9;&#9;&#9;c0.862-18.491,15.907-33.464,34.402-34.244c12.434-0.524,23.542,5.263,30.393,14.421c4.562,6.098,11.849,9.546,19.465,9.546h3.172&#10;&#9;&#9;&#9;"/>
		<path style="fill:none;stroke:#000000;stroke-width:15;stroke-linecap:round;stroke-linejoin:round;stroke-miterlimit:10;" d="&#10;&#9;&#9;&#9;M348,426.5h-84c-9.941,0-18-8.059-18-18v-20c0-9.941,8.059-18,18-18h84c9.941,0,18,8.059,18,18v20&#10;&#9;&#9;&#9;C366,418.441,357.941,426.5,348,426.5z"/>
	</g>
</g>















</svg>
