<svg width="17" height="16" viewBox="0 0 17 16" fill="none" xmlns="http://www.w3.org/2000/svg">
<g id="Group 534814017">
<g id="Group 534814016">
<path id="Line 43 (Stroke)" fill-rule="evenodd" clip-rule="evenodd" d="M0.495464 0.495442C0.769258 0.221817 1.21316 0.221817 1.48696 0.495442L15.5088 14.5086C15.7826 14.7823 15.7826 15.2259 15.5088 15.4995C15.235 15.7732 14.7911 15.7732 14.5173 15.4995L0.495464 1.48632C0.221671 1.2127 0.221671 0.769067 0.495464 0.495442Z" fill="#353535"/>
<path id="Line 44 (Stroke)" fill-rule="evenodd" clip-rule="evenodd" d="M0.495591 15.5044C0.221884 15.2307 0.221884 14.7869 0.495591 14.5132L14.513 0.495593C14.7867 0.221883 15.2305 0.221884 15.5042 0.495595C15.7779 0.769306 15.7779 1.21308 15.5042 1.48679L1.48677 15.5044C1.21307 15.7781 0.769299 15.7781 0.495591 15.5044Z" fill="#353535"/>
</g>
</g>
</svg>
