<svg width="24" height="25" viewBox="0 0 24 25" fill="none" xmlns="http://www.w3.org/2000/svg">
<path d="M11.9991 9.39093C10.2788 9.39093 8.87492 10.7948 8.87492 12.5151C8.87492 14.2355 10.2788 15.6394 11.9991 15.6394C13.7194 15.6394 15.1234 14.2355 15.1234 12.5151C15.1234 10.7948 13.7194 9.39093 11.9991 9.39093ZM21.3695 12.5151C21.3695 11.2214 21.3812 9.93937 21.3085 8.64796C21.2359 7.14796 20.8937 5.81671 19.7968 4.71984C18.6976 3.62062 17.3687 3.28078 15.8687 3.20812C14.5749 3.13546 13.2929 3.14718 12.0015 3.14718C10.7077 3.14718 9.4257 3.13546 8.13429 3.20812C6.63429 3.28078 5.30304 3.62296 4.20617 4.71984C3.10695 5.81906 2.7671 7.14796 2.69445 8.64796C2.62179 9.94171 2.63351 11.2237 2.63351 12.5151C2.63351 13.8066 2.62179 15.0909 2.69445 16.3823C2.7671 17.8823 3.10929 19.2136 4.20617 20.3105C5.30539 21.4097 6.63429 21.7495 8.13429 21.8222C9.42804 21.8948 10.7101 21.8831 12.0015 21.8831C13.2952 21.8831 14.5773 21.8948 15.8687 21.8222C17.3687 21.7495 18.6999 21.4073 19.7968 20.3105C20.896 19.2112 21.2359 17.8823 21.3085 16.3823C21.3835 15.0909 21.3695 13.8089 21.3695 12.5151ZM11.9991 17.3222C9.33898 17.3222 7.1921 15.1753 7.1921 12.5151C7.1921 9.85499 9.33898 7.70812 11.9991 7.70812C14.6593 7.70812 16.8062 9.85499 16.8062 12.5151C16.8062 15.1753 14.6593 17.3222 11.9991 17.3222ZM17.003 8.6339C16.382 8.6339 15.8804 8.13234 15.8804 7.51124C15.8804 6.89015 16.382 6.38859 17.003 6.38859C17.6241 6.38859 18.1257 6.89015 18.1257 7.51124C18.1259 7.65872 18.097 7.80479 18.0406 7.94108C17.9843 8.07737 17.9016 8.20121 17.7973 8.30549C17.693 8.40978 17.5692 8.49247 17.4329 8.54882C17.2966 8.60517 17.1505 8.63408 17.003 8.6339Z" fill="white"/>
</svg>
