<svg width="20" height="20" viewBox="0 0 20 20" fill="none" xmlns="http://www.w3.org/2000/svg">
<path fill-rule="evenodd" clip-rule="evenodd" d="M15.9914 19H4.00863C2.35277 19 1 17.6472 1 15.9914V4.00862C1 2.35277 2.35277 1 4.00863 1H15.9914C17.6472 1 19 2.35277 19 4.00862V15.9914C19 17.6546 17.6546 19 15.9914 19ZM9.57008 14.4388C8.38497 14.4388 7.27081 13.9775 6.43343 13.1401C5.59604 12.3027 5.13477 11.1885 5.13477 10.0034C5.13477 8.81832 5.59604 7.70416 6.43343 6.86678C7.27081 6.02939 8.38497 5.56812 9.57008 5.56812C10.7552 5.56812 11.8694 6.02939 12.7067 6.86678C13.5441 7.70416 14.0054 8.81832 14.0054 10.0034C14.0054 11.1885 13.5441 12.3027 12.7067 13.1401C11.8623 13.9775 10.7552 14.4388 9.57008 14.4388ZM9.57008 6.51195C7.64693 6.51195 6.0786 8.07318 6.0786 10.0034C6.0786 11.9266 7.63983 13.4949 9.57008 13.4949C11.4932 13.4949 13.0616 11.9337 13.0616 10.0034C13.0545 8.08028 11.4932 6.51195 9.57008 6.51195ZM15.7218 4.57084C15.7218 5.04117 15.3405 5.42244 14.8702 5.42244C14.3998 5.42244 14.0186 5.04117 14.0186 4.57084C14.0186 4.10051 14.3998 3.71924 14.8702 3.71924C15.3405 3.71924 15.7218 4.10051 15.7218 4.57084Z" fill="#C4C4C4"/>
</svg>
