<svg width="24" height="24" viewBox="0 0 24 24" fill="none" xmlns="http://www.w3.org/2000/svg">
<path d="M12.25 1C10.0629 1.0029 7.96612 1.87303 6.41957 3.41957C4.87303 4.96612 4.0029 7.06286 4 9.25C4 15.1728 11.6862 22.5909 12.0128 22.9038C12.0763 22.9655 12.1614 23 12.25 23C12.3386 23 12.4237 22.9655 12.4872 22.9038C12.8137 22.5909 20.5 15.1728 20.5 9.25C20.4971 7.06286 19.627 4.96612 18.0804 3.41957C16.5339 1.87303 14.4371 1.0029 12.25 1V1ZM12.25 13.0313C11.5021 13.0313 10.7711 12.8095 10.1493 12.394C9.52743 11.9785 9.04277 11.388 8.75658 10.697C8.47039 10.0061 8.39551 9.24581 8.54141 8.51232C8.68731 7.77882 9.04743 7.10507 9.57625 6.57625C10.1051 6.04744 10.7788 5.68731 11.5123 5.54141C12.2458 5.39551 13.0061 5.47039 13.697 5.75658C14.388 6.04277 14.9785 6.52743 15.394 7.14925C15.8095 7.77107 16.0312 8.50214 16.0312 9.25C16.0306 10.2527 15.6321 11.2141 14.9231 11.9231C14.2141 12.6321 13.2527 13.0307 12.25 13.0313Z" fill="#0D2DFF"/>
</svg>
