<svg width="30" height="30" viewBox="0 0 30 30" fill="none" xmlns="http://www.w3.org/2000/svg">
<path fill-rule="evenodd" clip-rule="evenodd" d="M7.5 12.2148C7.5 7.98935 10.7582 4.5 15.438 4.5C20.1276 4.5 23.5 7.99901 23.5 12.2148C23.5 13.0156 23.2197 14.0466 22.726 15.2192C22.2364 16.3823 21.5552 17.6427 20.7946 18.8892C19.2767 21.3766 17.466 23.7707 16.3016 25.1632C15.881 25.6137 15.2374 25.6122 14.8183 25.159C13.5971 23.772 11.7546 21.3775 10.2197 18.8873C9.45178 17.6413 8.76697 16.3813 8.27563 15.2186C7.78027 14.0464 7.5 13.0154 7.5 12.2148ZM15.438 3.5C10.2052 3.5 6.5 7.43776 6.5 12.2148C6.5 13.2147 6.8408 14.3922 7.3545 15.6078C7.87222 16.8329 8.58444 18.14 9.36842 19.412C10.9359 21.9551 12.8147 24.3972 14.0716 25.8241L14.0715 25.8242L14.0783 25.8316C14.896 26.7228 16.2278 26.7228 17.0455 25.8316L17.0532 25.8232L17.0605 25.8145C18.2506 24.3923 20.0966 21.9527 21.6482 19.4101C22.424 18.1387 23.1321 16.8319 23.6477 15.6072C24.1592 14.392 24.5 13.2146 24.5 12.2148C24.5 7.4281 20.661 3.5 15.438 3.5ZM19 11.5C19 13.433 17.433 15 15.5 15C13.567 15 12 13.433 12 11.5C12 9.567 13.567 8 15.5 8C17.433 8 19 9.567 19 11.5ZM20 11.5C20 13.9853 17.9853 16 15.5 16C13.0147 16 11 13.9853 11 11.5C11 9.01472 13.0147 7 15.5 7C17.9853 7 20 9.01472 20 11.5Z" fill="#0047BA"/>
</svg>
