<svg width="24" height="24" viewBox="0 0 24 24" fill="none" xmlns="http://www.w3.org/2000/svg">
<path fill-rule="evenodd" clip-rule="evenodd" d="M3.40099 1.00017C3.43523 1.00026 3.46952 1.00035 3.50382 1.00035H6.72187C6.75121 1.00035 6.78052 1.00029 6.80976 1.00022C7.18078 0.999444 7.54273 0.998683 7.86929 1.12407C8.15392 1.23336 8.40735 1.41087 8.60732 1.64101C8.83676 1.90506 8.95974 2.24548 9.0858 2.59443C9.09574 2.62193 9.10569 2.64949 9.11572 2.67707L10.4556 6.36183C10.5405 6.59529 10.6172 6.80613 10.6685 6.98824C10.7238 7.18473 10.7642 7.39552 10.749 7.62835C10.7266 7.97218 10.6093 8.30306 10.4101 8.58416C10.2751 8.7745 10.111 8.91275 9.94421 9.0305C9.78968 9.13962 9.59729 9.25504 9.38427 9.38284L8.36499 9.9944C9.60784 12.4076 11.5924 14.394 14.0054 15.6353L14.6172 14.6157C14.745 14.4027 14.8604 14.2103 14.9695 14.0558C15.0872 13.889 15.2255 13.7249 15.4158 13.59C15.6969 13.3907 16.0278 13.2734 16.3717 13.251C16.6045 13.2358 16.8153 13.2762 17.0118 13.3315C17.1939 13.3828 17.4047 13.4594 17.6381 13.5444L21.3229 14.8843C21.3505 14.8943 21.3781 14.9043 21.4056 14.9142C21.7545 15.0403 22.0949 15.1632 22.359 15.3927C22.5891 15.5927 22.7666 15.8461 22.8759 16.1307C23.0013 16.4573 23.0006 16.8192 22.9998 17.1902C22.9997 17.2195 22.9997 17.2488 22.9997 17.2781V20.4962C22.9997 20.5305 22.9997 20.5648 22.9998 20.599C23.001 21.0416 23.0021 21.4783 22.8149 21.8665C22.6581 22.1916 22.3796 22.4912 22.0668 22.6713C21.6938 22.8861 21.2852 22.915 20.8775 22.9439C20.8479 22.946 20.8182 22.9481 20.7886 22.9502C20.3381 22.9832 19.8831 23 19.4244 23C9.2489 23 1 14.7511 1 4.57558C1 4.11687 1.01678 3.66195 1.04977 3.21141C1.05194 3.18178 1.05404 3.15213 1.05614 3.12248C1.085 2.71476 1.11392 2.30617 1.32866 1.9332C1.50877 1.62038 1.80836 1.34193 2.1335 1.18514C2.52172 0.997939 2.95837 0.999049 3.40099 1.00017ZM3.50382 2.43958C2.88454 2.43958 2.81057 2.45647 2.75862 2.48152C2.69431 2.51254 2.61155 2.58946 2.57593 2.65133C2.54581 2.70364 2.52594 2.75956 2.48516 3.31652C2.45472 3.73211 2.43923 4.15197 2.43923 4.57558C2.43923 13.9562 10.0438 21.5608 19.4244 21.5608C19.848 21.5608 20.2679 21.5453 20.6835 21.5148C21.2404 21.4741 21.2964 21.4542 21.3487 21.4241C21.4105 21.3885 21.4875 21.3057 21.5185 21.2414C21.5435 21.1894 21.5604 21.1155 21.5604 20.4962V17.2781C21.5604 16.7574 21.5489 16.6897 21.5323 16.6466C21.5075 16.582 21.4672 16.5245 21.415 16.4791C21.3802 16.4488 21.3205 16.4148 20.8311 16.2369L17.1681 14.9049C16.906 14.8095 16.746 14.7519 16.6218 14.7169C16.5065 14.6845 16.4716 14.6868 16.4651 14.6872C16.3871 14.6922 16.3119 14.7189 16.2481 14.7641C16.2429 14.7678 16.2144 14.788 16.1452 14.886C16.0707 14.9914 15.9829 15.1369 15.8394 15.3761L14.9014 16.9394L13.9874 17.2247C10.8012 15.7817 8.22027 13.1971 6.77553 10.013L7.06061 9.09862L8.62392 8.16063C8.8631 8.01712 9.00864 7.92926 9.11403 7.85484C9.21186 7.78575 9.23212 7.75718 9.23587 7.75189C9.2811 7.68808 9.30775 7.61295 9.31283 7.5349C9.31325 7.52843 9.31553 7.49345 9.28308 7.37816C9.24812 7.25397 9.19046 7.09405 9.09514 6.8319L7.76314 3.16891C7.58518 2.67951 7.55118 2.61982 7.52093 2.585C7.47553 2.53276 7.41801 2.49247 7.3534 2.46766C7.31033 2.45113 7.24263 2.43958 6.72187 2.43958H3.50382Z" fill="#C4C4C4"/>
</svg>
