<svg width="20" height="20" viewBox="0 0 20 20" fill="none" xmlns="http://www.w3.org/2000/svg">
<path d="M17.3383 4.95384C15.4489 4.95384 13.9118 3.41672 13.9118 1.52734C13.9118 1.23607 13.6758 1 13.3845 1H10.5602C10.269 1 10.0328 1.23607 10.0328 1.52734V13.1067C10.0328 14.2174 9.12906 15.121 8.01834 15.121C6.90762 15.121 6.004 14.2174 6.004 13.1067C6.004 11.9958 6.90762 11.0922 8.01834 11.0922C8.30962 11.0922 8.54568 10.8561 8.54568 10.5648V7.74052C8.54568 7.44939 8.30962 7.21318 8.01834 7.21318C4.76872 7.21318 2.125 9.85704 2.125 13.1067C2.125 16.3563 4.76872 19 8.01834 19C11.268 19 13.9118 16.3563 13.9118 13.1067V7.98112C14.9613 8.54074 16.1293 8.83284 17.3383 8.83284C17.6296 8.83284 17.8657 8.59677 17.8657 8.3055V5.48119C17.8657 5.19005 17.6296 4.95384 17.3383 4.95384Z" fill="#C4C4C4"/>
</svg>
