<svg width="20" height="20" viewBox="0 0 20 20" fill="none" xmlns="http://www.w3.org/2000/svg">
<g clip-path="url(#clip0_7672_135866)">
<path fill-rule="evenodd" clip-rule="evenodd" d="M18.3666 11.4197C18.9036 6.89949 18.1086 4.04574 16.6746 2.75499L16.6753 2.75424C14.3608 0.549988 6.5443 0.223738 3.7753 2.85324C2.5318 4.13949 2.0938 6.02724 2.0458 8.36424C1.9978 10.702 1.9408 15.0812 6.02155 16.2692H6.0253L6.02155 18.0835C6.02155 18.0835 5.9938 18.8185 6.4633 18.9662C6.969 19.1301 7.21397 18.837 8.63563 17.1363L8.91355 16.804C11.7066 17.0462 13.8516 16.4912 14.0953 16.4102C14.1457 16.3934 14.217 16.3746 14.3055 16.3514C15.208 16.1142 17.8966 15.4079 18.3666 11.4197ZM10.1668 4.22275C9.87801 4.22275 9.87801 4.67275 10.1668 4.6765C12.407 4.69375 14.252 6.25525 14.2723 9.1195C14.2723 9.42175 14.7148 9.418 14.711 9.11575C14.687 6.0295 12.6718 4.24 10.1668 4.22275ZM13.5524 8.65525C13.5487 8.9575 13.1069 8.94325 13.1137 8.64475C13.1482 7.1545 12.2474 5.9875 10.5374 5.85775C10.2494 5.83675 10.2794 5.383 10.5682 5.404C12.5399 5.55175 13.5892 6.9535 13.5524 8.65525ZM12.6407 10.5805C12.2702 10.366 11.8929 10.4995 11.7369 10.7102L11.4107 11.1325C11.2449 11.347 10.9352 11.3185 10.9352 11.3185C8.67467 10.7207 8.07017 8.35524 8.07017 8.35524C8.07017 8.35524 8.04242 8.03499 8.24942 7.86324L8.65742 7.52574C8.86142 7.36374 8.99042 6.97374 8.78267 6.59049C8.36419 5.8344 8.04933 5.45184 7.8384 5.19556C7.76959 5.11196 7.71184 5.04179 7.66517 4.97649C7.46567 4.72674 7.16567 4.67049 6.85367 4.83924H6.84692C6.19817 5.21874 5.48792 5.92899 5.71517 6.66024C5.7824 6.79393 5.8594 6.97833 5.9526 7.20153C6.39687 8.26552 7.20921 10.211 9.08642 11.746C10.1537 12.6242 11.8427 13.5242 12.5597 13.732L12.5664 13.7425C13.2729 13.978 13.9599 13.24 14.3267 12.5717V12.5665C14.4894 12.2432 14.4354 11.9372 14.1977 11.737C13.7762 11.326 13.1402 10.8722 12.6407 10.5805ZM11.9848 8.26976C11.9473 7.49651 11.5978 7.12001 10.877 7.07801C10.5853 7.06076 10.6123 6.60701 10.901 6.62426C11.849 6.67676 12.3755 7.23926 12.4235 8.24876C12.437 8.55101 11.9983 8.57201 11.9848 8.26976Z" fill="#C4C4C4"/>
</g>
<defs>
<clipPath id="clip0_7672_135866">
<rect width="18" height="18" fill="white" transform="translate(1 1)"/>
</clipPath>
</defs>
</svg>
